PathFileType	4	(X/Y/Z)	D:\TRACE\v60_Jaco2_6-2-23\JustBodyDRS_Motion2_9-v60.trc
DataRate	CameraRate	NumFrames	NumMarkers	Units	OrigDataRate	OrigDataStartFrame	OrigNumFrames
100.00	100.00	      41	9	mm	100.00	5172	      6895
Frame#	Time	front left toe			Front right toe			aft left toe			aft right toe			Arm			FL body			FR body			AL Body			AR Body			
		X1	Y1	Z1	X2	Y2	Z2	X3	Y3	Z3	X4	Y4	Z4	X5	Y5	Z5	X6	Y6	Z6	X7	Y7	Z7	X8	Y8	Z8	X9	Y9	Z9	

5172	51.710	-271.86633	8.22515	-182.71935	137.65138	132.12268	-232.57817	-167.86949	134.24364	434.47711	180.21684	32.35992	397.95929	-183.12152	1210.11084	-323.41357	-160.24878	577.86365	-331.66245	-1.19107	577.05164	-350.75076	-50.80627	559.35693	608.13647	102.63076	552.84100	588.71484	
5173	51.720	-272.53290	8.12581	-183.04039	136.54195	125.55804	-232.80704	-174.08380	128.57620	432.28192	179.48781	33.20435	397.77475	-183.90398	1209.68323	-324.67242	-161.55893	577.55853	-332.29044	-1.89512	576.86426	-350.99698	-51.82798	559.73846	607.55298	102.50912	552.99542	588.85974	
5174	51.730	-273.03995	7.73906	-183.38255	135.47993	119.21172	-233.15338	-178.82364	121.74524	429.93646	179.42926	33.80830	397.62527	-184.75987	1209.19641	-325.94003	-161.96873	577.05249	-332.58234	-2.77010	576.52020	-351.32983	-52.79718	560.39758	607.21936	104.06142	554.49615	589.96460	
5175	51.740	-273.28317	7.43083	-183.61667	134.12450	111.98095	-233.91017	-182.75551	114.47902	428.19235	178.94234	34.48482	397.33725	-185.70454	1208.75159	-327.13937	-162.86848	576.78729	-332.97940	-3.63893	576.15643	-351.77771	-54.26563	561.10577	606.75537	102.35550	555.51874	590.56421	
5176	51.750	-273.74112	7.00309	-183.89748	132.12430	104.42762	-234.58141	-187.09491	106.58659	426.19153	178.22122	34.98191	397.12238	-187.11656	1208.27869	-328.20499	-163.88997	576.28821	-333.80844	-4.25880	575.80518	-352.26956	-55.24880	561.33228	606.18384	101.15575	555.55560	589.51678	
5177	51.760	-274.22882	6.53469	-184.14224	130.87672	96.67043	-234.98610	-190.78200	98.12127	424.75589	177.69591	35.67128	396.92966	-188.73885	1207.82715	-328.91373	-164.31192	575.54193	-334.25262	-5.22892	575.06311	-352.41052	-56.21994	562.17609	605.69989	100.06863	556.56201	589.90942	
5178	51.770	-274.46750	6.22242	-184.40723	128.51169	88.48066	-235.47940	-195.56656	90.42839	422.97513	177.44000	36.22083	396.68222	-190.06606	1207.40723	-329.89810	-164.93541	575.03046	-334.43320	-5.92923	574.72772	-353.07474	-57.25160	562.50720	605.09729	98.78248	556.74030	588.46393	
5179	51.780	-274.52542	5.89639	-184.80956	127.06077	80.33372	-235.62219	-199.66566	83.01341	421.90863	177.12305	36.89554	396.42877	-191.32681	1207.15649	-330.72549	-165.88931	574.90167	-335.15802	-6.39939	574.61670	-353.29474	-58.10236	562.94794	604.65167	98.77430	557.41797	588.03088	
5180	51.790	-274.84134	5.72149	-185.06400	125.54938	72.23403	-235.63863	-202.55841	75.78436	421.24542	177.16933	37.82873	396.04742	-192.77704	1206.71924	-331.93640	-166.53647	574.82135	-335.45712	-7.39500	574.37939	-353.78024	-59.18942	563.43103	604.29321	97.09660	557.79950	588.14856	
5181	51.800	-274.94415	4.95174	-185.16298	124.06707	64.44978	-235.64522	-203.37544	67.62917	420.96594	177.03246	38.44863	395.80399	-193.66594	1206.13806	-332.91647	-167.27733	574.24597	-335.98410	-8.39654	574.17981	-354.23816	-60.10225	563.80902	603.78888	95.99036	558.47656	587.69336	
5182	51.810	-275.06335	4.35834	-185.28502	122.96109	56.63627	-235.49455	-204.31194	60.19780	421.18527	176.70583	38.85583	395.53900	-194.53233	1205.74756	-334.13934	-168.28146	573.62793	-336.66730	-8.58549	573.89203	-355.04245	-61.22842	564.10736	603.39331	95.00893	558.84106	586.73590	
5183	51.820	-275.01199	3.81951	-185.49692	121.71758	49.17971	-234.64305	-203.36517	51.73318	422.67865	176.40625	39.61860	395.27475	-195.72804	1205.48071	-335.44400	-168.95236	573.14288	-336.82928	-9.44422	573.45465	-355.43713	-61.96511	564.89343	602.91437	94.30516	559.28357	586.22821	
5184	51.830	-275.01422	3.50374	-185.61961	120.73012	42.20880	-233.90558	-203.56496	45.57541	423.79831	176.64149	40.18002	395.20743	-196.66263	1205.12878	-336.39078	-169.28027	572.46869	-337.03915	-10.13199	572.89301	-355.68509	-62.79835	565.04504	602.71417	92.99036	559.82263	585.75793	
5185	51.840	-275.15329	3.09787	-185.85612	119.39111	35.25985	-233.38046	-203.90709	42.31104	422.88272	176.87451	40.92092	395.06189	-198.36537	1204.76709	-337.37137	-170.92772	572.18225	-337.85803	-10.62066	572.88043	-356.49545	-63.84616	565.25427	602.36578	91.74765	559.98682	585.29376	
5186	51.850	-275.36343	2.84720	-186.06770	118.31120	28.69937	-233.10196	-205.96933	43.08181	420.85254	176.64291	41.49818	394.73508	-199.85722	1204.18701	-338.07166	-171.39134	572.06012	-338.21161	-12.01410	572.29858	-356.56314	-64.51066	566.33276	601.75317	92.05811	561.36609	584.81006	
5187	51.860	-275.48846	2.59194	-186.14951	117.15812	21.62862	-232.73808	-206.03084	41.24425	421.66724	176.21558	42.10619	394.60489	-201.86276	1203.51599	-338.57193	-172.31438	571.34143	-338.56390	-12.93671	571.64404	-357.10019	-64.55964	568.03198	601.23108	91.13819	562.55536	584.47742	
5188	51.870	-275.57913	2.34608	-186.22865	115.08307	14.16854	-232.09837	-205.38101	43.15508	422.18243	176.29547	43.00880	394.34698	-203.36797	1202.92310	-340.21121	-173.52748	570.65692	-338.90146	-13.71636	571.05945	-357.50937	-65.02917	569.76324	600.97595	91.19820	564.40411	583.36255	
5189	51.880	-275.59116	2.14780	-186.31206	114.29681	3.89826	-231.61008	-205.10390	43.95226	421.57300	175.96062	43.62477	393.93341	-204.31805	1202.75269	-342.42877	-173.80315	569.93127	-338.87289	-14.94457	570.34790	-357.52560	-65.37299	571.31085	600.65643	90.74724	566.06836	582.97583	
5190	51.890	-275.25632	1.85755	-186.49658	114.49160	-3.18053	-235.55576	-204.36055	43.90147	421.79520	176.39906	44.18010	393.79138	-204.54736	1202.50061	-344.89905	-175.13234	569.67816	-339.24255	-15.98366	570.62195	-357.81577	-65.58548	572.51697	600.35291	90.70876	567.94763	582.60199	
5191	51.900	-274.70273	1.73692	-186.69936	116.74725	-2.34070	-233.99176	-204.02585	44.37267	421.20480	176.58812	44.66647	393.03036	-204.93275	1202.45532	-347.49673	-175.69174	570.41681	-339.04041	-17.20948	571.87695	-357.90570	-65.70720	573.60168	600.08862	90.52129	569.35834	582.53308	
5192	51.910	-273.53244	4.72597	-186.64365	115.99927	-2.03863	-233.20079	-203.54988	43.92527	420.97482	177.06793	47.69546	393.59451	-206.01328	1202.88684	-348.58960	-176.84970	571.88361	-339.64963	-17.89051	573.37030	-358.59302	-65.93788	574.74530	600.06488	90.14595	570.43964	582.88354	
5193	51.920	-270.16360	8.00166	-183.65038	114.87892	-1.65549	-234.61531	-203.74400	43.67429	420.56503	174.28926	51.71608	396.60501	-208.69128	1203.78491	-348.46017	-177.36996	572.68274	-340.17102	-18.58895	574.01160	-358.60306	-65.98227	576.20764	599.41296	89.49481	571.21228	581.64331	
5194	51.930	-267.65491	15.26452	-180.65517	115.48589	-1.76494	-234.35223	-203.57469	44.38565	420.06158	170.45526	60.03978	399.96957	-212.17383	1204.74280	-347.20499	-178.12686	572.63959	-340.76755	-18.86733	574.40637	-359.67126	-66.45537	577.25848	599.05334	89.21775	572.90436	581.19965	
5195	51.940	-266.74606	24.67297	-179.90570	116.21580	-2.40896	-234.81230	-203.08293	44.55513	419.86133	166.48062	70.70215	401.07297	-215.72005	1204.89795	-346.64056	-177.92291	571.14886	-340.90854	-19.44921	573.67987	-359.68192	-66.65757	578.90875	598.73798	88.94504	574.91357	580.49866	
5196	51.950	-265.93866	36.57557	-179.18768	116.38727	-3.12064	-234.79303	-202.73758	44.91928	419.81396	164.82951	83.94080	401.94443	-218.38777	1204.51648	-347.10159	-178.65144	570.07336	-341.22601	-19.61460	572.82971	-360.13367	-68.01156	579.67877	598.57880	87.50648	575.88446	580.69275	
5197	51.960	-265.17780	48.39420	-180.30348	116.42722	-3.35460	-234.70598	-202.72501	45.04399	419.65503	165.75995	97.38775	400.96631	-219.91415	1203.38110	-348.60574	-178.28577	568.90521	-341.11075	-19.64082	571.77338	-360.00900	-68.75677	580.38690	598.63171	87.24175	577.01758	581.08551	
5198	51.970	-266.34042	61.15548	-180.83904	116.78062	-3.37985	-234.44205	-202.47229	45.12715	419.53494	168.35994	111.73734	400.27689	-220.49808	1200.47864	-351.37994	-178.89644	567.97205	-341.35571	-19.94224	571.09473	-360.02234	-69.86706	580.73346	598.70551	85.73207	577.45288	581.19366	
5199	51.980	-267.91925	73.50896	-181.27441	117.54886	-3.46941	-234.52199	-202.18127	45.15996	419.35211	169.58429	125.56232	399.09396	-220.58768	1196.83301	-353.94980	-179.20135	566.56592	-341.43158	-18.82060	570.16516	-360.30276	-71.02096	581.32544	598.83966	84.36333	578.33032	581.42426	
5200	51.990	-270.48169	85.66278	-181.79655	118.06084	-4.04476	-234.50790	-201.87785	45.22310	419.20200	170.44240	138.81570	398.40131	-221.11995	1194.25232	-356.27518	-179.42497	564.73016	-341.70850	-19.94032	568.68762	-360.16464	-72.45146	581.84430	598.75006	83.36751	579.38165	581.39941	
5201	52.000	-271.43161	97.33960	-182.96146	118.89838	-4.35042	-234.48985	-201.29251	45.12461	419.22183	169.51894	151.69383	397.89999	-222.40962	1192.97595	-358.05847	-179.30676	562.77954	-341.93634	-19.90931	566.91321	-360.11246	-73.20600	583.11700	598.85364	81.93807	580.47137	581.47534	
5202	52.010	-272.25885	107.78986	-183.52065	119.22271	-4.33948	-234.30960	-201.08226	45.55091	419.08200	167.97101	163.42487	398.03333	-224.25014	1192.15564	-359.16153	-179.19733	560.69403	-342.12952	-19.94443	565.23828	-360.05283	-74.63510	584.29150	598.74530	80.87650	581.89569	581.49359	
5203	52.020	-272.47385	117.02106	-184.02254	120.24617	-4.41679	-234.06595	-200.77412	45.89689	418.93488	165.37611	174.15936	397.96643	-226.45056	1190.83337	-360.41202	-179.23936	558.87646	-342.23422	-20.04746	563.51929	-359.76898	-75.75550	585.25220	598.55151	79.31489	583.17255	581.54340	
5204	52.030	-273.55701	124.89821	-184.97678	120.42210	-4.49352	-233.97694	-200.42259	46.38491	418.98227	162.96935	183.10886	398.33292	-228.04861	1188.71765	-361.59998	-179.28708	557.09235	-342.31790	-20.18936	562.06543	-359.85165	-77.49851	586.34821	598.44257	78.50081	584.65112	581.88641	
5205	52.040	-275.02954	129.35033	-185.88606	120.75905	-4.95934	-234.02261	-200.03954	46.36866	418.87845	160.41441	187.60834	398.54813	-229.18584	1186.10474	-364.01364	-179.02672	555.72479	-342.37888	-20.21689	560.91241	-359.60788	-78.50558	586.84851	598.32813	77.25982	585.59320	581.73450	
5206	52.050	-276.27377	130.77728	-186.58405	121.33215	-4.99284	-233.90541	-199.47081	46.17110	418.70917	158.31711	189.21777	398.24088	-229.80583	1183.69873	-366.27139	-179.26186	554.13251	-342.92459	-20.13939	559.52637	-359.81482	-80.06186	587.68030	598.16052	75.69624	586.55792	581.99268	
5207	52.060	-277.79840	128.76691	-187.82892	121.94830	-4.89428	-233.70921	-198.91023	45.96825	418.70197	157.49786	187.61363	397.73431	-230.72211	1181.83972	-368.49292	-179.30058	552.74835	-343.16376	-19.98148	558.35535	-359.74506	-81.21390	588.07471	597.93024	74.56332	587.22455	581.85089	
5208	52.070	-279.33325	124.81248	-189.14598	122.47171	-5.00244	-233.50784	-198.59955	46.17202	418.65457	155.74902	184.07538	396.70096	-232.03598	1180.41638	-370.18674	-179.22983	551.60254	-343.24283	-20.08645	557.58997	-359.91299	-82.55889	588.46082	597.73468	73.08408	587.96204	582.14441	
5209	52.080	-280.23010	119.70316	-190.76944	123.06433	-5.03981	-233.51929	-198.19586	46.30861	418.43646	153.78796	179.32863	395.47958	-233.34375	1179.88135	-371.23773	-179.16792	550.52271	-343.91125	-20.11192	556.80231	-359.95871	-84.17719	589.01190	597.52014	71.49561	588.49902	581.53778	
5210	52.090	-280.77420	114.02989	-192.88011	123.62227	-5.07810	-233.53323	-197.84430	46.22833	418.23431	150.10791	173.31007	394.14606	-234.41043	1179.16748	-372.09766	-179.31277	549.79016	-344.86795	-20.07559	556.12286	-360.62231	-85.83516	589.50977	596.88336	70.06182	589.17651	581.36658	
5211	52.100	-280.87671	107.22966	-195.45529	124.35215	-5.10884	-233.59456	-197.40536	46.07066	418.00424	147.95279	166.89156	393.24051	-235.41040	1178.62463	-372.83575	-179.49997	548.89240	-345.56241	-19.52431	555.53094	-361.53787	-87.19566	589.33356	595.56024	68.55554	589.68884	580.74896	
5212	52.110	-281.57660	100.08971	-198.48920	124.96171	-5.05619	-233.59126	-196.58186	45.74124	417.90735	144.32239	158.88222	391.67227	-236.12762	1177.72900	-374.40927	-179.29836	548.02344	-346.32840	-19.60276	554.97327	-362.15604	-88.79458	589.37500	594.80927	67.24735	590.18640	580.19031	
